<svg xmlns="http://www.w3.org/2000/svg" width="570" height="285" viewBox="0 0 570 285" role="img" aria-labelledby="title desc"><title id="title">Languages across my repositories</title><desc id="desc">Primary language of non-fork public repositories, not a line-of-code percentage.</desc>
<rect x="1" y="1" width="568" height="283" rx="20" fill="#0C1118" stroke="#273744"/>
<g font-family="Segoe UI,Arial,sans-serif"><text x="28" y="36" fill="#C7F52B" font-size="11" font-weight="700" letter-spacing="2">LANGUAGES ACROSS MY REPOSITORIES</text>
<text x="28" y="60" fill="#9AAEBE" font-size="11" font-weight="400">Primary languages · non-fork public repositories</text>
<text x="28" y="95" fill="#F4F7FA" font-size="12" font-weight="400">JavaScript</text>
<text x="491" y="95" fill="#9AAEBE" font-size="11" font-weight="400">33 repos</text>
<rect x="155" y="85" width="310" height="9" rx="4" fill="#141D26"/><rect x="155" y="85" width="310.0" height="9" rx="4" fill="#C7F52B"/>
<text x="28" y="129" fill="#F4F7FA" font-size="12" font-weight="400">HTML</text>
<text x="491" y="129" fill="#9AAEBE" font-size="11" font-weight="400">15 repos</text>
<rect x="155" y="119" width="310" height="9" rx="4" fill="#141D26"/><rect x="155" y="119" width="140.9" height="9" rx="4" fill="#71D6D0"/>
<text x="28" y="163" fill="#F4F7FA" font-size="12" font-weight="400">CSS</text>
<text x="491" y="163" fill="#9AAEBE" font-size="11" font-weight="400">9 repos</text>
<rect x="155" y="153" width="310" height="9" rx="4" fill="#141D26"/><rect x="155" y="153" width="84.5" height="9" rx="4" fill="#8DA3FA"/>
<text x="28" y="197" fill="#F4F7FA" font-size="12" font-weight="400">TypeScript</text>
<text x="491" y="197" fill="#9AAEBE" font-size="11" font-weight="400">5 repos</text>
<rect x="155" y="187" width="310" height="9" rx="4" fill="#141D26"/><rect x="155" y="187" width="47.0" height="9" rx="4" fill="#EFAB6D"/>
<text x="28" y="231" fill="#F4F7FA" font-size="12" font-weight="400">PHP</text>
<text x="491" y="231" fill="#9AAEBE" font-size="11" font-weight="400">1 repos</text>
<rect x="155" y="221" width="310" height="9" rx="4" fill="#141D26"/><rect x="155" y="221" width="9.4" height="9" rx="4" fill="#C895DA"/>
<text x="28" y="264" fill="#9AAEBE" font-size="10" font-weight="400">Language mix reflects repositories, not skill rankings.</text>
</g></svg>